<?xml version="1.0" standalone="no"?>
<!DOCTYPE svg PUBLIC "-//W3C//DTD SVG 20010904//EN"
 "http://www.w3.org/TR/2001/REC-SVG-20010904/DTD/svg10.dtd">
<svg version="1.0" xmlns="http://www.w3.org/2000/svg"
 width="1200.000000pt" height="1200.000000pt" viewBox="0 0 1200.000000 1200.000000"
 preserveAspectRatio="xMidYMid meet">

<g transform="translate(0.000000,1200.000000) scale(0.100000,-0.100000)"
fill="#2b1009" stroke="none">
<path d="M5760 11993 c-725 -37 -1344 -170 -1990 -426 -230 -91 -585 -264
-795 -388 -886 -520 -1607 -1238 -2139 -2129 -109 -182 -295 -555 -381 -763
-657 -1596 -595 -3408 171 -4947 62 -124 149 -288 195 -365 520 -886 1238
-1607 2129 -2139 182 -109 555 -295 763 -381 1596 -657 3408 -595 4947 171
358 179 643 353 948 583 627 472 1143 1049 1556 1741 104 174 302 571 382 765
656 1601 593 3406 -172 4945 -428 860 -1014 1565 -1776 2137 -296 223 -580
398 -923 568 -544 271 -1071 444 -1655 545 -407 70 -895 102 -1260 83z m656
-1788 c1842 -191 3342 -1550 3713 -3365 62 -304 75 -450 76 -830 0 -370 -9
-489 -61 -770 -209 -1139 -871 -2137 -1839 -2773 -821 -538 -1776 -771 -2753
-671 -1772 181 -3245 1463 -3671 3194 -41 166 -84 405 -96 535 -3 39 -9 82
-11 98 l-6 27 3136 0 3136 0 0 350 0 350 -3129 0 c-1722 0 -3132 3 -3134 8 -7
11 21 234 49 392 109 605 353 1187 706 1686 711 1003 1814 1648 3023 1768 88
9 189 18 225 20 124 7 488 -4 636 -19z"/>
</g>
</svg>
