<svg width="16" height="16" viewBox="0 0 16 16" fill="none" xmlns="http://www.w3.org/2000/svg"><path d="M3.7602 2.45074L8.00606 0L12.2519 2.45074L10.6909 3.3561L8.00606 1.81074L5.32118 3.3561L3.7602 2.45074ZM12.2519 5.54148L10.6909 4.63611L8.00606 6.18148L5.32118 4.63611L3.7602 5.54148V7.35221L6.44508 8.89758V11.9883L8.00606 12.8937L9.56703 11.9883V8.89758L12.2519 7.35221V5.54148ZM12.2519 10.443V8.63221L10.6909 9.5376V11.3483L12.2519 10.443ZM13.3602 11.083L10.6753 12.6283V14.4391L14.9212 11.9883V7.08684L13.3602 7.99222V11.083ZM11.7993 3.99611L13.3602 4.90147V6.71221L14.9212 5.80684V3.99611L13.3602 3.09074L11.7993 3.99611ZM6.44508 13.2839V15.0947L8.00606 16L9.56703 15.0947V13.2839L8.00606 14.1893L6.44508 13.2839ZM3.7602 10.443L5.32118 11.3483V9.5376L3.7602 8.63221V10.443ZM6.44508 3.99611L8.00606 4.90147L9.56703 3.99611L8.00606 3.09074L6.44508 3.99611ZM2.65189 4.90147L4.21287 3.99611L2.65189 3.09074L1.09091 3.99611V5.80684L2.65189 6.71221V4.90147ZM2.65189 7.99222L1.09091 7.08684V11.9883L5.33677 14.4391V12.6283L2.65189 11.083V7.99222Z" fill="#2b1009"></path></svg>