<svg width="16" height="16" viewBox="0 0 16 16" fill="none" xmlns="http://www.w3.org/2000/svg" class="ml-8"><path d="M12.1149 5.30287C11.8225 5.13577 11.4465 5.13577 11.1123 5.30287L8.77285 6.68146L7.18538 7.55875L4.88773 8.93734C4.5953 9.10444 4.21932 9.10444 3.88512 8.93734L2.08877 7.85117C1.79634 7.68407 1.58747 7.34987 1.58747 6.97389V4.88512C1.58747 4.55091 1.75457 4.21671 2.08877 4.00783L3.88512 2.96345C4.17755 2.79634 4.55353 2.79634 4.88773 2.96345L6.68407 4.04961C6.9765 4.21671 7.18538 4.55091 7.18538 4.92689V6.30548L8.77285 5.38642V3.96606C8.77285 3.63185 8.60574 3.29765 8.27154 3.08877L4.9295 1.12533C4.63708 0.958225 4.2611 0.958225 3.92689 1.12533L0.501305 3.13055C0.167102 3.29765 0 3.63185 0 3.96606V7.89295C0 8.22715 0.167102 8.56136 0.501305 8.77024L3.88512 10.7337C4.17755 10.9008 4.55353 10.9008 4.88773 10.7337L7.18538 9.39687L8.77285 8.47781L11.0705 7.14099C11.3629 6.97389 11.7389 6.97389 12.0731 7.14099L13.8695 8.18538C14.1619 8.35248 14.3708 8.68668 14.3708 9.06266V11.1514C14.3708 11.4856 14.2037 11.8198 13.8695 12.0287L12.1149 13.0731C11.8225 13.2402 11.4465 13.2402 11.1123 13.0731L9.31593 12.0287C9.0235 11.8616 8.81462 11.5274 8.81462 11.1514V9.81462L7.22715 10.7337V12.1123C7.22715 12.4465 7.39426 12.7807 7.72846 12.9896L11.1123 14.953C11.4047 15.1201 11.7807 15.1201 12.1149 14.953L15.4987 12.9896C15.7911 12.8225 16 12.4883 16 12.1123V8.1436C16 7.8094 15.8329 7.4752 15.4987 7.26632L12.1149 5.30287Z" fill="#2b1009"></path></svg>