<svg width="24" height="14" viewBox="0 0 20 14" fill="none" xmlns="http://www.w3.org/2000/svg"><path d="M2.01677 7.59431C1.90328 7.41461 1.84654 7.32476 1.81477 7.18618C1.79091 7.08208 1.79091 6.91791 1.81477 6.81382C1.84654 6.67523 1.90328 6.58538 2.01677 6.40568C2.95461 4.9207 5.74617 1.16666 10.0003 1.16666C14.2545 1.16666 17.0461 4.9207 17.9839 6.40568C18.0974 6.58538 18.1541 6.67523 18.1859 6.81382C18.2098 6.91791 18.2098 7.08208 18.1859 7.18618C18.1541 7.32476 18.0974 7.41461 17.9839 7.59431C17.0461 9.0793 14.2545 12.8333 10.0003 12.8333C5.74617 12.8333 2.95461 9.0793 2.01677 7.59431Z" stroke="#7d6d60" stroke-width="1.66667" stroke-linecap="round" stroke-linejoin="round"></path><path d="M10.0003 9.5C11.381 9.5 12.5003 8.38071 12.5003 7C12.5003 5.61929 11.381 4.5 10.0003 4.5C8.61962 4.5 7.50034 5.61929 7.50034 7C7.50034 8.38071 8.61962 9.5 10.0003 9.5Z" stroke="#7d6d60" stroke-width="1.66667" stroke-linecap="round" stroke-linejoin="round"></path></svg>