<svg width="14" height="14" viewBox="0 0 14 14" fill="none" xmlns="http://www.w3.org/2000/svg" class="inline w-16 h-16"><path d="M11.7141 2.28596C9.11478 -0.313365 4.88534 -0.313365 2.28602 2.28596C-0.313308 4.88528 -0.313308 9.11472 2.28602 11.714C4.88534 14.3134 9.11478 14.3134 11.7141 11.714C14.3134 9.11472 14.3134 4.88528 11.7141 2.28596ZM8.21911 8.21906L8.21911 6.72376L5.58585 9.35703C5.32563 9.61724 4.90325 9.61724 4.64304 9.35703C4.38282 9.09681 4.38282 8.67443 4.64304 8.41422L7.2763 5.78095H5.78101C5.41331 5.78095 5.11444 5.48208 5.11444 5.11439C5.11444 4.74669 5.41331 4.44782 5.78101 4.44782L8.88568 4.44782C9.25337 4.44782 9.55224 4.74669 9.55224 5.11439V8.21906C9.55224 8.58675 9.25337 8.88562 8.88568 8.88562C8.51798 8.88562 8.21911 8.58675 8.21911 8.21906Z" fill="#2b1009" fill-rule="nonzero"></path></svg>