<svg width="12" height="12" viewBox="0 0 12 12" fill="none" xmlns="http://www.w3.org/2000/svg">
<g id="duplicate 1" clip-path="url(#clip0_2693_16780)">
<path id="Vector" d="M0.375 4.99959V10.0685C0.375 10.6857 0.884625 11.1923 1.5015 11.1923H7.002C7.61888 11.1923 8.1255 10.685 8.1255 10.0685V4.99959C8.1255 4.38234 7.6185 3.87309 7.002 3.87309H1.5015C0.884625 3.87309 0.375 4.38272 0.375 4.99959ZM5.12475 0.808594C4.4385 0.808594 3.87675 1.37334 3.87675 2.05959V3.12234H7.002C8.0325 3.12234 8.8755 3.97172 8.8755 4.99959V8.12784H10.3763C11.0625 8.12784 11.625 7.56309 11.625 6.87684V2.05959C11.625 1.37334 11.0625 0.808594 10.3763 0.808594H5.12475Z" fill="#7d6d60"/>
</g>
<defs>
<clipPath id="clip0_2693_16780">
<rect width="12" height="12" fill="#7d6d60"/>
</clipPath>
</defs>
</svg>
